<svg width="13" height="13" viewBox="0 0 13 13" fill="none" xmlns="http://www.w3.org/2000/svg">
<path d="M0.949741 12.2634C1.20061 12.5143 1.60743 12.5142 1.85839 12.2633L11.1658 2.95585L11.1645 10.3974C11.1644 10.7522 11.452 11.0398 11.8069 11.0398C12.1617 11.0397 12.4494 10.752 12.4495 10.3971L12.4511 1.40376C12.4511 1.34689 12.4438 1.29175 12.4299 1.23924C12.3574 0.964002 12.1067 0.761098 11.8087 0.761152L2.817 0.762795C2.46215 0.76286 2.17443 1.05058 2.17437 1.40543C2.1743 1.76028 2.46191 2.04789 2.81676 2.04782L10.2582 2.04646L0.949907 11.3548C0.698944 11.6058 0.69887 12.0126 0.949741 12.2634Z" fill="white"/>
</svg>
